<svg xmlns="http://www.w3.org/2000/svg" viewBox="0 0 913.42 137.93"><g id="Layer_2" data-name="Layer 2"><g id="Layer_1-2" data-name="Layer 1"><path d="M913.42,77.89a11.7,11.7,0,0,1-3.27,1c-14.62.07-29.25,0-43.88,0h-3.41c1.58,5.63,4.44,9.87,9.74,11.76,9.11,3.24,16.69,0,23-5.88l13.71,12.33c-3.36,2.76-5.9,5.52-9,7.27-14.83,8.35-30,8.71-45.07.68-7.06-3.77-11.63-10-14.14-17.55a45.7,45.7,0,0,1,.43-31.2c5.66-15.13,20.18-23.52,37.41-22.59,22.78,1.22,32.28,16.87,33.94,34.07.1,1.09.37,2.16.57,3.23ZM889.78,65.3c-.36-8.54-5.18-13.81-12.72-14.06-7.36-.25-13.73,5.87-14.51,14.06Z"/><path d="M0,109.77V12.63c.77-.07,1.5-.19,2.22-.19,14.82,0,29.63-.08,44.45,0A42.53,42.53,0,0,1,66.46,17C75.15,21.54,79.87,28.58,79.2,38.6c-.61,9.22-5.42,15.52-14,18.93a4.36,4.36,0,0,0-.86.66c1.24.45,2.34.8,3.41,1.23,9.7,3.9,15.53,13.91,14.59,25C81.24,97,73,105.67,58.88,108.53a62.49,62.49,0,0,1-11.58,1.19c-14.62.13-29.25,0-43.87,0ZM24.6,89.94c6.21,0,12.18,0,18.14,0a26.74,26.74,0,0,0,3.7-.17c4-.62,7.59-2,9.51-5.89,3.3-6.68-1.39-13.53-9.73-13.95-5.5-.28-11-.09-16.53-.1-1.67,0-3.34,0-5.09,0Zm0-38.8c4.29,0,8.36,0,12.42,0a61.73,61.73,0,0,0,9.34-.43,8.74,8.74,0,0,0,7.67-9.41c-.14-4.78-3-8.33-8.08-8.64-7-.44-14.15-.11-21.35-.11Z"/><path d="M473.92,12.53V32.77H428.84V54.28h41.5V74.7H428.78v34.84H404.13v-97Z"/><path d="M291.3,129.92c3.29-5.66,6.52-11.22,9.62-16.57,2.77,1.24,5.22,2.77,7.89,3.43,5.45,1.34,11.42-3,12.12-8.56a6,6,0,0,0-.73-2.68Q306.31,71.46,292.38,37.4c-.32-.78-.63-1.56-1.13-2.77h7.25c2.56,0,5.13,0,7.69,0,3.21.06,7.23-1,9.38.6s2.55,5.68,3.63,8.7q6.32,17.82,12.57,35.64c.31.88.65,1.75,1.31,3.5l15.27-48.37H372c-.32,1.07-.54,2-.88,2.92q-14.76,39.24-29.52,78.46c-2.16,5.74-4.95,11.11-9.66,15.21C321.17,140.63,302.54,140.06,291.3,129.92Z"/><path d="M760.55,109.67H736.94v-3.39c0-11.85,0-23.71,0-35.56a24.08,24.08,0,0,0-.51-5.64c-1.16-4.68-3.95-7.95-8.89-8.9a13.06,13.06,0,0,0-13.76,5.32,17.27,17.27,0,0,0-3.23,10.69q0,17.07,0,34.14v3.26H686.72V34.84h23.81V46.27l2.19-2.74C722,31.86,741.08,30.07,752,39.84a24.45,24.45,0,0,1,8.45,18.07C760.78,75.06,760.55,92.22,760.55,109.67Z"/><path d="M595.5,109.67H571.88V71.41c0-.57,0-1.14,0-1.71-.08-8.1-4-13-11-13.83-6.55-.79-12.85,3.82-14.67,10.88a22.2,22.2,0,0,0-.63,5.33c-.06,11.38,0,22.76,0,34.13v3.33H521.78V34.78h23.69V44.9c3.81-2.89,7.32-6.46,11.55-8.59,12.93-6.52,28.66-1.72,35.13,10.23a31.1,31.1,0,0,1,3.53,14.79c.12,15.74,0,31.48,0,47.22A8.11,8.11,0,0,1,595.5,109.67Z"/><path d="M649.66,64.71c.7-6.68-3.52-11.28-10.62-11.88-7.5-.63-14.47,1.39-21.26,4.3-1,.41-1.9.85-2.86,1.27-.07,0-.18,0-.57-.18q-3.09-7.86-6.41-16.3a78,78,0,0,1,20.19-7c8.75-1.68,17.55-2.13,26.25.29,11.67,3.24,18.76,12,18.94,24,.23,16.69.06,33.38.06,50.29H650.12v-7.37c-.55.22-.84.25-1,.41-8.06,8.59-18.18,9.72-28.89,7.37-11.08-2.43-17.86-12.52-16.84-24.09,1.12-12.68,9.52-20.33,23.55-21,6.54-.33,13.11-.12,19.66-.14Zm.15,13.47c-5.87,0-11.57-.37-17.19.12-4.82.41-6.76,3.13-6.67,7.58.09,4.23,2.74,7.2,7.08,7.92C643.49,95.53,650.79,88.78,649.81,78.18Z"/><path d="M239.19,79H189.12c1.68,5.85,4.8,10,10.31,12,7.14,2.61,14.76.46,22.63-6.25,4.31,4,8.62,8.09,13.07,12.25A33.94,33.94,0,0,1,221,107.38a46.52,46.52,0,0,1-34,.44,31.62,31.62,0,0,1-19.68-20.39,45.67,45.67,0,0,1,0-29.88c5.35-15.88,20.21-24.77,38-23.78,22.53,1.24,31.92,16.84,33.57,32.85.33,3.2.38,6.42.51,9.64A22.41,22.41,0,0,1,239.19,79ZM215.87,65.3a12.74,12.74,0,0,0-12.44-14.06C195.94,50.92,189,57.66,189,65.3Z"/><path d="M161.33,78.9H111.51c2,12.69,18.78,18.89,32.32,6.17L157.12,97A33.37,33.37,0,0,1,145,106.5a46.28,46.28,0,0,1-34.93,1.66C99.6,104.63,92.56,97.37,89.22,86.83a45.7,45.7,0,0,1,.6-30.4c5.64-15.22,20.35-23.65,37.62-22.67,22.11,1.26,32.43,16.35,33.85,35.36C161.53,72.22,161.33,75.35,161.33,78.9ZM138,65.3c.22-8.17-5.13-14-12.83-14.07-7.38-.09-14,6.5-14.11,14.07Z"/><path d="M291.72,38V54.56H275.89v55H252.11V54.76h-9.69V38.22h9.7c-1.07-12.52,1-23.6,13.48-29.72,8-4,20.33-3.88,29.4.17-1,6.11-2,12.31-3,18.56C277.54,22.44,274.84,29,276,38Z"/><path d="M821,82.12l17.72,10.52a85.93,85.93,0,0,1-5.34,7.3c-12.93,14.36-44,15.11-57.44-2.47-11.52-15.12-10-41,3.75-54.12,8.81-8.4,19.73-10.53,31.42-9.24S832,41,838.23,51.61l-17.4,10.52A16.84,16.84,0,0,0,811.46,55c-7.52-2.15-14.25.89-17.31,8.05a23.81,23.81,0,0,0-.27,18.29c1.86,4.9,5.31,8.38,10.75,9,5.94.72,11.1-.89,14.75-6Z"/><path d="M482.69,34.73h23.4v74.84h-23.4Z"/><path d="M506.78,13.49c-.08,7.68-5.39,13.12-12.78,13.07S481.47,21,481.5,13.22,486.76,0,494.13,0,506.85,5.6,506.78,13.49Z"/></g></g></svg>