<svg xmlns="http://www.w3.org/2000/svg" viewBox="0 0 1384.64 1053.14"><defs><style>.cls-1{fill:#fff;}</style></defs><g id="Layer_2" data-name="Layer 2"><g id="Layer_1-2" data-name="Layer 1"><path d="M1252,400.29c4.94,12.59,10,24.11,14,36a161,161,0,0,1,8,58.56c-2.14,48.39-4.6,96.77-7.06,145.15-2,39.74-4.24,79.46-6.38,119.19q-4.32,79.78-8.64,159.57c-1.47,27.27-3,54.53-4.2,81.8-1.28,29-25.23,52.44-54.31,52.51q-71,.17-142,0a54.72,54.72,0,0,1-53.77-42.95c-8.19-36.84-16-73.76-24-110.65-.39-1.78-.8-3.56-1.28-5.66H685.69c-3.37,15-6.78,30.07-10.12,45.13-5.32,24-10.47,48.09-15.92,72.08-5.72,25.13-26.82,41.88-52.68,41.91-47,.07-94-.3-141,.13-32.31.29-55.21-25-56.24-55-1.64-47.75-2.72-95.52-4.17-143.28-1-31.62-2-63.23-3.43-94.83-.29-6.16-2.3-12.32-4.07-18.32-1.92-6.48-6.76-9.64-13.51-9.81-7.16-.18-14.32-.44-21.49-.43-34.83,0-69.78,2.1-104.46-.2-67.58-4.48-120.94-36.6-145.83-102.69a157.5,157.5,0,0,1-10.13-56.13c0-84.75,0-169.5.16-254.25,0-5.44-1.69-8-6.47-10.58C50.79,283.42,22.1,245.41,6.81,196.84A170.85,170.85,0,0,1,.37,167.71c-3-22.86,12.07-41.7,35.1-42.61,29.46-1.16,59-.76,88.47-1,3.63,0,7.26,0,11.55,0,0-8.63-.07-16.74,0-24.84.15-14.11-.93-28.26,3-42.16A78,78,0,0,1,221.75.4,77.12,77.12,0,0,1,291.66,72c1,14.25.55,28.61.74,42.92,0,2.62,0,5.23,0,8.11h86.81c0-6.71-.22-13.31.05-19.89.57-14,.09-28.12,2.39-41.81C387.5,26.5,420,.9,455.44,0,487.2-.77,524.19,19.7,532.8,59c3,13.8,2.33,28.43,3,42.69.36,7.27.06,14.57.06,22.42,2.29,0,4.07,0,5.85,0,30,.23,60,.09,90,.79,26.89.63,41.9,18.51,39.44,45.32-2.16,23.59-11.64,44.6-22.74,65a179.45,179.45,0,0,1-51.34,59.14c-.78.57-1.49,1.23-3,2.52,2.4.15,3.94.33,5.48.33q142.49.38,285,.73c106.32.34,212.65.49,319,1.31a182,182,0,0,1,177.74,148.68,193.36,193.36,0,0,1,3.24,34.72c.29,67.26.15,134.53.12,201.8a75.76,75.76,0,0,1-.5,8c-1,9.09-4.78,16.09-13.27,20.77-7.25,4-13.68,9.48-20.73,13.89a17.84,17.84,0,0,1-8.26,2.26c-3.11.16-6.27-.63-9.4-1.1-21.66-3.19-30.08-17.76-32.54-38.62-1.89-15.94-1.05-32.23-1.08-48.37-.1-52.61.17-105.23-.11-157.84C1298.51,447.47,1281.33,420.8,1252,400.29ZM896.78,823.14h131.7c.52,2,.89,3.24,1.19,4.52q17,74.13,33.93,148.27c1.1,4.9,2.87,6.53,8.14,6.49,33.49-.31,67-.16,100.48-.16h5.49c.26-2.2.53-3.84.63-5.48,2.4-40.71,4.91-81.42,7.13-122.14,2.92-53.52,5.61-107,8.4-160.58,3.32-63.84,6.79-127.66,9.92-191.51,1.58-32.22-7.82-61.26-28.32-86.17-11.63-14.12-24.5-27.22-36.88-40.72-3.56-3.88-8.16-5.58-13.42-5.66-23.91-.38-47.83-.84-71.74-1.16-10.83-.14-21.67,0-32.5,0-1.61,0-3.22.16-4.83.24-2.14,32-20.57,52.18-46.91,66.31-28.15,15.11-58.44,18.53-89.73,13.84-8.77-1.32-17.37-3.86-25.83-5.79C846,490,821.15,522.2,774.41,533.1c-40,9.34-75-3-100.09-35.5-32.21-41.78-29.7-85.41-.69-128.91-1.83-.11-3.41-.29-5-.29q-53-.07-106-.12c-9.15,0-10.09.94-10.09,9.87,0,62.6.07,125.2-.19,187.8-.06,12.77,0,25.85-2.54,38.25-8.1,38.93-29.91,68.82-63.7,89.77-6.58,4.08-9.25,9-9.15,16.72.63,46.27,1,92.55,1.29,138.84.29,41.12.39,82.24.65,123.36.05,9,.75,9.64,9.72,9.65q48,0,96,0c7.64,0,8.31-.67,10-8.13,5.17-22.86,10.15-45.77,15.54-68.57,7-29.55,14.82-58.9,21.36-88.53C643.65,762.42,687,720,742,711.07c53-8.63,105.57,14.76,135,60.76C886.89,787.3,893.24,804.15,896.78,823.14ZM97.65,205.29a15.13,15.13,0,0,0,1.09,2.24c2.14,2.76,4.22,5.58,6.5,8.22,12.18,14.11,27.37,23.57,45.11,29.16,13.48,4.25,23.69,12.39,27.76,26.32A64.72,64.72,0,0,1,180.22,289q.18,137.61.06,275.21c0,11.89.93,23.59,4.94,34.9,11.27,31.73,39.49,51.86,75.86,52.27q75,.85,150-.09c39.3-.53,69.35-25.06,76.77-63,2.68-13.68,1.27-28.15,1.94-42.25.17-3.44-1.19-4.67-4.23-6-15.87-7.19-32.63-13.13-47.16-22.5-91.84-59.25-136-146.6-146.56-253-1.6-16.16-.43-32.6-.53-48.9,0-3.41,0-6.81,0-10.33ZM411.31,396.63c.74,19.53,12.77,31.74,30.71,31.2,16.36-.49,29.26-14.93,28.7-32.12a30.24,30.24,0,0,0-31.74-29A28.79,28.79,0,0,0,411.31,396.63Zm-179-298.08c0-7,.23-14-.05-21a21.18,21.18,0,0,0-20.64-20.39c-11.37-.46-22.15,7.7-22.72,18.71-.77,14.77-.32,29.6-.29,44.4,0,3.72,1.65,5.44,5.86,5.31,10.32-.33,20.67-.4,31,0,5.2.2,6.88-2,6.88-6.6C232.29,112.19,232.3,105.37,232.28,98.55Zm246.39-.9c0-6.49.08-13,0-19.47a21.09,21.09,0,0,0-20-21c-11.07-.81-22,6.92-23,17.65-1.08,11-.79,22.25-1,33.39-.07,4.14.26,8.29.43,12.44.14,3.7,1.91,5,5.73,4.9,10.5-.27,21-.36,31.49,0,5.12.19,6.37-2.17,6.34-6.48C478.63,112,478.67,104.81,478.67,97.65Z"/><path class="cls-1" d="M896.78,823.14c-3.54-19-9.89-35.84-19.79-51.31-29.44-46-82-69.39-135-60.76-55,8.95-98.33,51.35-110.44,106.21-6.54,29.63-14.37,59-21.36,88.53-5.39,22.8-10.37,45.71-15.54,68.57-1.69,7.46-2.36,8.12-10,8.13q-48,.09-96,0c-9,0-9.67-.66-9.72-9.65-.26-41.12-.36-82.24-.65-123.36C478,803.24,477.62,757,477,710.69c-.1-7.71,2.57-12.64,9.15-16.72,33.79-21,55.6-50.84,63.7-89.77,2.58-12.4,2.48-25.48,2.54-38.25.26-62.6.16-125.2.19-187.8,0-8.93.94-9.88,10.09-9.87q53,0,106,.12c1.58,0,3.16.18,5,.29-29,43.5-31.52,87.13.69,128.91,25.06,32.49,60.09,44.84,100.09,35.5C821.15,522.2,846,490,853.63,443.43c8.46,1.93,17.06,4.47,25.83,5.79,31.29,4.69,61.58,1.27,89.73-13.84,26.34-14.13,44.77-34.34,46.91-66.31,1.61-.08,3.22-.24,4.83-.24,10.83,0,21.67-.13,32.5,0,23.91.32,47.83.78,71.74,1.16,5.26.08,9.86,1.78,13.42,5.66,12.38,13.5,25.25,26.6,36.88,40.72,20.5,24.91,29.9,53.95,28.32,86.17-3.13,63.85-6.6,127.67-9.92,191.51-2.79,53.53-5.48,107.06-8.4,160.58-2.22,40.72-4.73,81.43-7.13,122.14-.1,1.64-.37,3.28-.63,5.48h-5.49c-33.49,0-67-.15-100.48.16-5.27,0-7-1.59-8.14-6.49q-16.77-74.17-33.93-148.27c-.3-1.28-.67-2.55-1.19-4.52Zm58.67-171.73C955.3,699.1,993,737.55,1040,737.67s85-38,85.37-85.59c.32-47.25-37.91-86.23-84.69-86.35C993.64,565.6,955.6,603.85,955.45,651.41Z"/><path class="cls-1" d="M97.65,205.29H291.27c0,3.52,0,6.92,0,10.33.1,16.3-1.07,32.74.53,48.9,10.51,106.39,54.72,193.74,146.56,253,14.53,9.37,31.29,15.31,47.16,22.5,3,1.38,4.4,2.61,4.23,6-.67,14.1.74,28.57-1.94,42.25-7.42,37.89-37.47,62.42-76.77,63q-75,1-150,.09c-36.37-.41-64.59-20.54-75.86-52.27-4-11.31-4.94-23-4.94-34.9q.06-137.61-.06-275.21a64.72,64.72,0,0,0-2.11-17.74c-4.07-13.93-14.28-22.07-27.76-26.32-17.74-5.59-32.93-15-45.11-29.16-2.28-2.64-4.36-5.46-6.5-8.22A15.13,15.13,0,0,1,97.65,205.29ZM209.11,396.35c.94,20.16,13.2,32.41,31.49,31.46,16.26-.84,28.87-15.61,28-32.8-.82-16.38-15.2-29.12-32-28.31C220.93,367.46,208.39,381,209.11,396.35Z"/><path class="cls-1" d="M411.31,396.63A28.79,28.79,0,0,1,439,366.69a30.24,30.24,0,0,1,31.74,29c.56,17.19-12.34,31.63-28.7,32.12C424.08,428.37,412.05,416.16,411.31,396.63Z"/><path class="cls-1" d="M232.29,98.55c0,6.82,0,13.64,0,20.47,0,4.59-1.68,6.8-6.88,6.6-10.31-.41-20.66-.34-31,0-4.21.13-5.85-1.59-5.86-5.31,0-14.8-.48-29.63.29-44.4.57-11,11.35-19.17,22.72-18.71a21.18,21.18,0,0,1,20.64,20.39C232.51,84.56,232.28,91.56,232.29,98.55Z"/><path class="cls-1" d="M478.67,97.65c0,7.16,0,14.32,0,21.48,0,4.31-1.22,6.67-6.34,6.48-10.48-.38-21-.29-31.49,0-3.82.1-5.59-1.2-5.73-4.9-.17-4.15-.5-8.3-.43-12.44.17-11.14-.12-22.34,1-33.39,1.05-10.73,12-18.46,23-17.65a21.09,21.09,0,0,1,20,21C478.75,84.67,478.67,91.16,478.67,97.65Z"/><path d="M955.45,651.41c.15-47.56,38.19-85.81,85.21-85.68,46.78.12,85,39.1,84.69,86.35-.33,47.61-38.33,85.71-85.37,85.59S955.3,699.1,955.45,651.41Z"/><path d="M209.11,396.35c-.72-15.4,11.82-28.89,27.55-29.65,16.76-.81,31.14,11.93,32,28.31.85,17.19-11.76,32-28,32.8C222.31,428.76,210.05,416.51,209.11,396.35Z"/></g></g></svg>