<svg width="33" height="24" viewBox="0 0 33 24" fill="none" xmlns="http://www.w3.org/2000/svg">
<path d="M0 19.5156C0 19.3731 0 19.23 0 19.0875C0.0158889 18.9682 0.0378889 18.849 0.0470556 18.7291C0.230389 16.3905 0.554889 14.0727 1.09572 11.7885C1.78567 8.87385 2.72433 6.04906 4.224 3.43893C4.38472 3.15884 4.62306 2.89036 4.88767 2.70751C6.27611 1.74675 7.76661 0.971294 9.39339 0.504064C10.1719 0.280845 10.9804 0.160368 11.7779 0.00686672C11.8666 -0.0102569 12.0181 0.0313291 12.0615 0.0973774C12.1868 0.288184 12.2723 0.505898 12.386 0.739514C11.1051 1.06792 9.88228 1.4477 8.73889 2.0403C7.51483 2.67448 5.91983 3.81749 5.61733 4.26943C12.8682 0.504063 20.1208 0.491832 27.3827 4.24558C25.4467 2.46717 23.1953 1.30949 20.6073 0.743795C20.6941 0.568277 20.7747 0.448412 20.8157 0.315704C20.9061 0.0221557 21.0882 -0.0279921 21.3742 0.0123707C23.5455 0.316927 25.542 1.09238 27.4022 2.23355C27.9987 2.59926 28.5646 2.9717 28.9184 3.64258C29.9408 5.57816 30.7438 7.59569 31.3549 9.69334C31.9605 11.769 32.4011 13.8801 32.6608 16.0272C32.7843 17.0461 32.8869 18.068 32.9988 19.0881C32.9988 19.2306 32.9988 19.3737 32.9988 19.5162C32.6089 19.9039 32.2416 20.3173 31.8261 20.6745C29.6096 22.5795 27.0056 23.5647 24.1322 23.9543C23.43 24.0497 23.0034 23.8729 22.6716 23.2779C22.4926 22.9568 22.2389 22.6773 21.9969 22.3495C24.4004 21.4775 26.4617 20.1828 28.1392 18.3096C28.0885 18.3157 28.0482 18.3383 28.0103 18.3652C26.1281 19.7033 24.0607 20.6353 21.8161 21.1643C18.9487 21.8395 16.0502 21.9184 13.1389 21.5288C10.7024 21.2029 8.39911 20.4623 6.28039 19.1927C5.82206 18.9181 5.37411 18.6264 4.92128 18.3426C6.58289 20.2134 8.63561 21.494 11.0037 22.3508C10.6254 22.8596 10.274 23.3201 9.93789 23.791C9.82483 23.9494 9.70322 24.0105 9.50522 23.9977C8.11372 23.909 6.76806 23.6087 5.45661 23.1458C3.333 22.3966 1.50272 21.2029 0 19.5156ZM14.2474 13.2917C14.1833 13.0428 14.1191 12.5713 13.9419 12.1475C13.2477 10.4914 11.3166 9.99667 10.0497 11.1262C8.75172 12.2839 8.67717 14.458 9.89205 15.7117C10.7085 16.5538 11.8776 16.7201 12.8712 16.0964C13.8148 15.5038 14.1912 14.5901 14.2474 13.2917ZM18.7666 13.4764C18.7581 14.0538 18.9023 14.5895 19.1724 15.0916C19.9143 16.4737 21.5747 16.8859 22.7871 15.9918C24.3326 14.8518 24.3754 12.2221 22.8549 11.0486C22.0483 10.426 21.1622 10.3135 20.2577 10.8149C19.2219 11.3892 18.8192 12.3414 18.7666 13.4764Z" fill="black"/>
</svg>
