<svg xmlns="http://www.w3.org/2000/svg" viewBox="0 0 525.14 525.1"><defs><style>.cls-1{fill:#fff;}</style></defs><g id="Layer_2" data-name="Layer 2"><g id="Layer_1-2" data-name="Layer 1"><path d="M253.3,0h18.48a29.58,29.58,0,0,0,3.1.42,253.79,253.79,0,0,1,59.52,9.65C440.26,40.38,515.32,132.22,524.22,242.26q.45,5.55.92,11.08v18.48a24.76,24.76,0,0,0-.42,2.83,256.92,256.92,0,0,1-7.3,50.87C490.72,434,397.19,514.35,286.12,524.05a260.55,260.55,0,0,1-78.53-4.78C154.11,507.65,108.41,482,71.08,442,29.19,397.18,5.8,344,.85,282.72A255.91,255.91,0,0,1,8.58,196,262.29,262.29,0,0,1,242.19.92ZM142.7,335c.59-.17.78-.29.88-.24,7.29,3.86,14.39,8.18,21.92,11.5,9.19,4.05,18.64,7.56,28.17,10.75a169.85,169.85,0,0,0,32.57,7.81c9.1,1.15,18.17,2.73,27.31,3.25,8.52.49,17.11-.25,25.67-.32,8.11-.06,16-1.59,24-2.85a225.82,225.82,0,0,0,34.34-8.71c5.57-1.82,11-4,16.44-6.23a210.2,210.2,0,0,0,30.68-15.53c-14.47,17.66-33.54,28-55.14,34.38.13.53.1,1,.32,1.27,1.83,2.22,3.74,4.38,5.57,6.61,4.1,5,8.14,10.05,12.24,15.06,1.6,1.95,3.23,3.64,6.23,3.25,7.36-1,14.83-1.26,22.1-2.65a120.65,120.65,0,0,0,36.28-13.13,108,108,0,0,0,34.83-30,5.36,5.36,0,0,0,1.21-3q-.35-14.37-.95-28.72c-.11-2.46-.59-4.91-.91-7.36-.49-3.79-1-7.58-1.48-11.37-.53-4.28-.75-8.61-1.56-12.84-1.58-8.25-3.32-16.48-5.29-24.65q-3.12-12.9-6.81-25.67c-2.17-7.5-4.59-15-7.18-22.32s-5.34-14.75-8.36-22c-3.39-8.14-7.1-16.15-10.8-24.16-.83-1.78-1.85-3.77-3.36-4.87-9.19-6.73-18.8-12.92-29.2-17.52a203.47,203.47,0,0,0-27.89-10.24c-9.57-2.65-19.37-5-29.54-4.24-2.79.21-6.05,2.91-6.5,5.67,26.3,8,51.16,19,73.36,35.4-5.34-2.25-10.52-4.85-15.89-7-8.31-3.33-16.64-6.65-25.14-9.42-6.7-2.18-13.63-3.67-20.52-5.19-8-1.77-16-3.46-24-4.75a135.56,135.56,0,0,0-17-1.49c-7.8-.24-15.61-.19-23.4,0-6.43.13-12.86.47-19.27,1-6.13.48-12.26,1.14-18.34,2-5.26.75-10.49,1.77-15.68,2.88-4.56,1-9.1,2.05-13.56,3.36-7.88,2.32-15.76,4.66-23.51,7.35-5.85,2-11.52,4.57-17.23,7-3.79,1.6-7.51,3.37-11.26,5.07l-.29-.53c6.94-4.46,13.76-9.15,20.87-13.32a167.59,167.59,0,0,1,17-8.56q11.63-5.13,23.55-9.56c5.11-1.91,10.45-3.21,15.67-4.86.57-.18,1-.83,1.51-1.26-1.14-1.22-2.27-3.46-3.43-3.49a85.46,85.46,0,0,0-15.84.82,150.71,150.71,0,0,0-20.32,4.91c-8.14,2.59-16.41,5.2-24,9-9.69,4.92-18.77,11.06-28.06,16.74a5.7,5.7,0,0,0-2,2.34c-4,8.54-8.22,17-11.94,25.72s-7,17.31-10.19,26.1c-2.57,7.2-4.76,14.55-6.84,21.92s-4,14.85-5.72,22.34c-2,8.57-3.93,17.17-5.41,25.84-1.34,7.85-2.19,15.79-3,23.72-.83,8.2-1.37,16.43-2,24.65-.17,2.42.12,4.87-.06,7.29a13.21,13.21,0,0,0,3.2,10,116,116,0,0,0,19.72,19.08A106.28,106.28,0,0,0,121.75,384a130.21,130.21,0,0,0,28.13,8.73c7.86,1.43,15.66,2.52,23.62,2.15a3.28,3.28,0,0,0,2.11-1.13q8.69-10.35,17.23-20.82c1.17-1.41,2.19-2.94,3.29-4.44C175.14,362,157,351.84,142.7,335Z"/><path class="cls-1" d="M142.7,335c14.26,16.89,32.44,27,53.43,33.52-1.1,1.5-2.12,3-3.29,4.44q-8.57,10.45-17.23,20.82a3.28,3.28,0,0,1-2.11,1.13c-8,.37-15.76-.72-23.62-2.15A130.21,130.21,0,0,1,121.75,384a106.28,106.28,0,0,1-22.16-13.06,116,116,0,0,1-19.72-19.08,13.21,13.21,0,0,1-3.2-10c.18-2.42-.11-4.87.06-7.29.58-8.22,1.12-16.45,2-24.65.79-7.93,1.64-15.87,3-23.72,1.48-8.67,3.43-17.27,5.41-25.84q2.58-11.24,5.72-22.34c2.08-7.37,4.27-14.72,6.84-21.92,3.14-8.79,6.52-17.52,10.19-26.1s7.9-17.18,11.94-25.72a5.7,5.7,0,0,1,2-2.34c9.29-5.68,18.37-11.82,28.06-16.74,7.57-3.84,15.84-6.45,24-9a150.71,150.71,0,0,1,20.32-4.91,85.46,85.46,0,0,1,15.84-.82c1.16,0,2.29,2.27,3.43,3.49-.5.43-.94,1.08-1.51,1.26-5.22,1.65-10.56,2.95-15.67,4.86q-11.91,4.44-23.55,9.56a167.59,167.59,0,0,0-17,8.56c-7.11,4.17-13.93,8.86-20.87,13.32l.29.53c3.75-1.7,7.47-3.47,11.26-5.07,5.71-2.4,11.38-4.94,17.23-7,7.75-2.69,15.63-5,23.51-7.35,4.46-1.31,9-2.4,13.56-3.36,5.19-1.11,10.42-2.13,15.68-2.88,6.08-.85,12.21-1.51,18.34-2,6.41-.5,12.84-.84,19.27-1,7.79-.17,15.6-.22,23.4,0a135.56,135.56,0,0,1,17,1.49c8.06,1.29,16.07,3,24,4.75,6.89,1.52,13.82,3,20.52,5.19,8.5,2.77,16.83,6.09,25.14,9.42,5.37,2.15,10.55,4.75,15.89,7-22.2-16.44-47.06-27.37-73.36-35.4.45-2.76,3.71-5.46,6.5-5.67,10.17-.75,20,1.59,29.54,4.24a203.47,203.47,0,0,1,27.89,10.24c10.4,4.6,20,10.79,29.2,17.52,1.51,1.1,2.53,3.09,3.36,4.87,3.7,8,7.41,16,10.8,24.16,3,7.23,5.77,14.58,8.36,22s5,14.82,7.18,22.32q3.7,12.75,6.81,25.67c2,8.17,3.71,16.4,5.29,24.65.81,4.23,1,8.56,1.56,12.84.47,3.79,1,7.58,1.48,11.37.32,2.45.8,4.9.91,7.36q.6,14.35.95,28.72a5.36,5.36,0,0,1-1.21,3,108,108,0,0,1-34.83,30A120.65,120.65,0,0,1,376,392.3c-7.27,1.39-14.74,1.68-22.1,2.65-3,.39-4.63-1.3-6.23-3.25-4.1-5-8.14-10.05-12.24-15.06-1.83-2.23-3.74-4.39-5.57-6.61-.22-.27-.19-.74-.32-1.27,21.6-6.39,40.67-16.72,55.14-34.38A210.2,210.2,0,0,1,354,349.91c-5.42,2.21-10.87,4.41-16.44,6.23a225.82,225.82,0,0,1-34.34,8.71c-8,1.26-15.88,2.79-24,2.85-8.56.07-17.15.81-25.67.32-9.14-.52-18.21-2.1-27.31-3.25A169.85,169.85,0,0,1,193.67,357c-9.53-3.19-19-6.7-28.17-10.75-7.53-3.32-14.63-7.64-21.92-11.5C143.48,334.66,143.29,334.78,142.7,335Zm208.85-51.56c-.1-11.06-3.49-20.08-11.19-27.24s-17-10.17-27.4-7.92c-16,3.47-25.4,17.52-26,32.76a39.69,39.69,0,0,0,2.37,14.55,33.94,33.94,0,0,0,7.64,12.12,30.75,30.75,0,0,0,42.4,2.17C347.53,302.76,351.3,293.5,351.55,283.39Zm-116.36-5.45a28.6,28.6,0,0,0-7.63-18.14c-2.26-2.47-4.48-5.09-7.69-7a39.72,39.72,0,0,0-11.75-4.47,24.58,24.58,0,0,0-6.86-.31c-2.41.15-5,.22-7.13,1.22-3.86,1.83-8.16,3-11.15,6.44-2.11,2.42-4.84,4.44-6.4,7.15A35.09,35.09,0,0,0,171.5,282c.15,3.6.15,7.32,1.1,10.74.89,3.19,2.93,6.06,4.48,9.07,3,5.79,8.12,9.62,13.62,12.27a26.44,26.44,0,0,0,16.83,2.51c4.75-1,9.5-2.21,13.25-5.25a48.43,48.43,0,0,0,6.38-6.06,29.71,29.71,0,0,0,6.22-10.71,80.14,80.14,0,0,0,2-12.11A24.05,24.05,0,0,0,235.19,277.94Z"/><path d="M351.55,283.39c-.25,10.11-4,19.37-12.23,26.44a31.34,31.34,0,0,1-42.4-2.17,33.94,33.94,0,0,1-7.64-12.12A39.69,39.69,0,0,1,286.91,281c.65-15.24,10.08-29.29,26-32.76,10.37-2.25,19.63.69,27.4,7.92S351.45,272.33,351.55,283.39Z"/><path d="M235.19,277.94a24.05,24.05,0,0,1,.22,4.47,80.14,80.14,0,0,1-2,12.11,29.71,29.71,0,0,1-6.22,10.71,48.43,48.43,0,0,1-6.38,6.06c-3.75,3-8.5,4.27-13.25,5.25A26.44,26.44,0,0,1,190.7,314c-5.5-2.65-10.63-6.48-13.62-12.27-1.55-3-3.59-5.88-4.48-9.07-.95-3.42-.95-7.14-1.1-10.74a35.09,35.09,0,0,1,5.08-19.08c1.56-2.71,4.29-4.73,6.4-7.15,3-3.42,7.29-4.61,11.15-6.44,2.11-1,4.72-1.07,7.13-1.22a24.58,24.58,0,0,1,6.86.31,39.72,39.72,0,0,1,11.75,4.47c3.21,1.87,5.43,4.49,7.69,7A28.6,28.6,0,0,1,235.19,277.94Z"/></g></g></svg>