<svg xmlns="http://www.w3.org/2000/svg" viewBox="0 0 429.06 429.02"><defs><style>.cls-1{fill:#fff;}</style></defs><g id="Layer_2" data-name="Layer 2"><g id="Layer_1-2" data-name="Layer 1"><path d="M222.11,429H207a20.77,20.77,0,0,0-2.33-.34,208.4,208.4,0,0,1-54.15-9.48C66.74,392.91,7.82,318.89.75,231.08L0,222v-15.1c.12-.84.27-1.67.35-2.52.73-7.5,1.1-15.06,2.22-22.5a210.52,210.52,0,0,1,26.17-74.61A214.38,214.38,0,0,1,197.88.68a211.45,211.45,0,0,1,71,6.3A214.28,214.28,0,0,1,428.37,197.82a211,211,0,0,1-6.31,71A214.34,214.34,0,0,1,231.18,428.27ZM171.25,290l-.92-.51-33.59-17.71c-17.45-9.2-34.87-18.46-52.37-27.58a26.61,26.61,0,0,1-10.69-10.29,42.58,42.58,0,0,1-5.84-17.39c-.64-5.78-.59-11.47,1.86-16.88,2.83-6.23,7.51-7.76,13.56-4.55,5.76,3.06,11.54,6.07,17.31,9.1L146,228c13.37,7,26.73,14.08,40.13,21a21.88,21.88,0,0,0,5.53,2c4.41.91,8.3-.92,12.06-2.86q29.16-15.07,58.27-30.25Q292.5,202,323,186.07q19.57-10.19,39.18-20.32c2.75-1.42,4.74-3.4,4.74-6.51s-1.85-5.23-4.67-6.55q-18.06-8.5-36.09-17.08-38.81-18.51-77.56-37.1a26.44,26.44,0,0,0-13.8-2.6c-4,.32-7.43,1.87-10.94,3.61-23.07,11.49-46.2,22.85-69.29,34.31q-24.9,12.35-49.74,24.84-19.14,9.57-38.26,19.18a26,26,0,0,0-8.78,7.23c-5.64,7.12-7.75,15.5-8.13,24.33a60.16,60.16,0,0,0,5.55,27.44c4.66,10.4,11.5,18.86,22,24,9.82,4.85,19.52,9.94,29.25,15,19.28,9.95,38.53,20,57.86,29.85a8.91,8.91,0,0,1,5.15,6c4.76,16.22,20,24.77,36.53,20.74,11.6-2.83,20.6-13.26,21.83-24.66.27-2.52.88-4.68,3.73-5.53a19,19,0,0,0,3.28-1.82l55.38-29.94q19.32-10.46,38.61-21a3.71,3.71,0,0,1,4.42.15,29.06,29.06,0,0,0,25.16,3.59c13.78-4.1,24.11-19.08,20.47-35.15-3.39-15-17.25-25.67-33.68-23.31a29.76,29.76,0,0,0-25.67,30c0,3,.75,6.09,1.17,9.31l-1.3.72-40.19,21.39q-27.44,14.61-54.85,29.25c-1.14.61-1.77.57-2.63-.5-6-7.38-13.68-11.33-23.29-11.37-10.07-.05-18.07,4.08-24.21,11.95C173.17,286.88,172.28,288.42,171.25,290Z"/><path class="cls-1" d="M171.25,290c1-1.55,1.92-3.09,3-4.48,6.14-7.87,14.14-12,24.21-11.95,9.61,0,17.3,4,23.29,11.37.86,1.07,1.49,1.11,2.63.5q27.41-14.67,54.85-29.25l40.19-21.39,1.3-.72c-.42-3.22-1.15-6.26-1.17-9.31a29.76,29.76,0,0,1,25.67-30c16.43-2.36,30.29,8.31,33.68,23.31,3.64,16.07-6.69,31.05-20.47,35.15a29.06,29.06,0,0,1-25.16-3.59,3.71,3.71,0,0,0-4.42-.15q-19.28,10.55-38.61,21-27.69,15-55.38,29.94a19,19,0,0,1-3.28,1.82c-2.85.85-3.46,3-3.73,5.53-1.23,11.4-10.23,21.83-21.83,24.66-16.54,4-31.77-4.52-36.53-20.74a8.91,8.91,0,0,0-5.15-6c-19.33-9.87-38.58-19.9-57.86-29.85-9.73-5-19.43-10.12-29.25-15-10.49-5.19-17.33-13.65-22-24a60.16,60.16,0,0,1-5.55-27.44c.38-8.83,2.49-17.21,8.13-24.33a26,26,0,0,1,8.78-7.23q19.11-9.63,38.26-19.18,24.85-12.43,49.74-24.84C177.7,122.37,200.83,111,223.9,99.52c3.51-1.74,6.95-3.29,10.94-3.61a26.44,26.44,0,0,1,13.8,2.6q38.78,18.55,77.56,37.1,18,8.61,36.09,17.08c2.82,1.32,4.67,3.47,4.67,6.55s-2,5.09-4.74,6.51Q342.6,175.84,323,186.07q-30.56,15.9-61.1,31.81Q232.81,233,203.67,248.13c-3.76,1.94-7.65,3.77-12.06,2.86a21.88,21.88,0,0,1-5.53-2c-13.4-7-26.76-14-40.13-21l-45.38-23.8c-5.77-3-11.55-6-17.31-9.1-6.05-3.21-10.73-1.68-13.56,4.55-2.45,5.41-2.5,11.1-1.86,16.88a42.58,42.58,0,0,0,5.84,17.39,26.61,26.61,0,0,0,10.69,10.29c17.5,9.12,34.92,18.38,52.37,27.58l33.59,17.71Zm36.29,13.58a9.27,9.27,0,0,0-9.47-9.53,9.54,9.54,0,0,0-9.22,10.42,9.64,9.64,0,0,0,9.56,8.47A9.2,9.2,0,0,0,207.54,303.55Zm132.72-79.13a9.27,9.27,0,0,0,9.31,9.51,9.44,9.44,0,0,0,9.45-9.22,9.38,9.38,0,1,0-18.76-.29Z"/><path d="M207.54,303.55a9.2,9.2,0,0,1-9.13,9.36,9.64,9.64,0,0,1-9.56-8.47A9.54,9.54,0,0,1,198.07,294,9.27,9.27,0,0,1,207.54,303.55Z"/><path d="M340.26,224.42a9.38,9.38,0,1,1,18.76.29,9.44,9.44,0,0,1-9.45,9.22A9.27,9.27,0,0,1,340.26,224.42Z"/></g></g></svg>