<svg xmlns="http://www.w3.org/2000/svg" viewBox="0 0 439.18 439.17"><defs><style>.cls-1{fill:#fff;}</style></defs><g id="Layer_2" data-name="Layer 2"><g id="Layer_1-2" data-name="Layer 1"><path d="M439.18,211.83v15.45a25.16,25.16,0,0,0-.35,2.57,211.36,211.36,0,0,1-6.77,45.09A219.56,219.56,0,0,1,236.59,438.41c-3.1.24-6.19.51-9.28.76H211.85c-.73-.11-1.45-.26-2.18-.34-9.89-1.11-19.87-1.67-29.64-3.41A210.61,210.61,0,0,1,79,388.05Q8.78,328.44.76,236.41a211.51,211.51,0,0,1,6.44-72.5A219.38,219.38,0,0,1,202.55.7a216.28,216.28,0,0,1,77,7.63C368.14,33.62,431,110.51,438.42,202.56,438.67,205.65,438.93,208.74,439.18,211.83Zm-190.66,82-.51.61a30.92,30.92,0,0,1,2.56,2c2.68,2.54,4.25,5.75,5.63,9.13,2.48,6.13,3.08,12.57,3.14,19.05.13,14.24.08,28.47,0,42.71,0,7.11,5,9.9,11.22,8.11,11.25-3.24,21.69-8.42,31.76-14.32a138.06,138.06,0,0,0,26.9-20.44c5.56-5.44,10.69-11.36,15.73-17.3a142.74,142.74,0,0,0,16.58-24.91,136.53,136.53,0,0,0,12.17-29.9c1.74-6.6,3.15-13.3,4.46-20a58.45,58.45,0,0,0,1.21-10.94c.05-10.41-.11-20.83-.39-31.24a70.69,70.69,0,0,0-1.28-10.93,165.84,165.84,0,0,0-7.6-27.83,152.83,152.83,0,0,0-12-25.21c-5.09-8.47-10.55-16.73-17.37-23.92-5.78-6.09-11.55-12.24-17.87-17.75a146.88,146.88,0,0,0-22.19-15.62,159.76,159.76,0,0,0-27.45-12.83A125.56,125.56,0,0,0,248,65.75c-6.67-.91-13.36-2.07-20.07-2.32C217.39,63,206.78,63,196.34,65c-7.56,1.45-15.16,2.84-22.56,4.88A144.08,144.08,0,0,0,137.69,85.7a165.76,165.76,0,0,0-29.13,22.16,155.69,155.69,0,0,0-17.12,19.51A154.13,154.13,0,0,0,68.3,170.72a193.29,193.29,0,0,0-6,22.47,111.27,111.27,0,0,0-2.45,19.64c-.28,10.7-.75,21.45,1.09,32.1,1,5.7,1.65,11.48,3,17.09A134.75,134.75,0,0,0,75.64,294a215.28,215.28,0,0,0,12.69,21,154.88,154.88,0,0,0,14.07,17.71,213.8,213.8,0,0,0,17,15.85,123.87,123.87,0,0,0,26.88,17.55c7,3.41,14.22,6.32,21.48,9.11a13.94,13.94,0,0,0,6.95.42c3.62-.63,5.91-4.25,5.89-8.48,0-9.6-.24-19.2-.39-28.8a2,2,0,0,0-.07-.42c-4.35.39-8.65,1-13,1.13a97,97,0,0,1-10.5-.38c-6-.42-11.91-1.41-17.25-4.48s-9.78-7.25-12.28-13.25a103.16,103.16,0,0,0-6.77-13.55c-3.07-5.12-6.9-9.6-12.42-12.46-1.81-.93-3.25-2.77-4.54-4.44-2-2.53-.71-3.5,1.86-4.11a16.64,16.64,0,0,1,9.26.58c6.9,2.43,12.89,6.37,17.21,12.46,3.61,5.1,6.42,10.8,11.65,14.66,4.33,3.2,9,5.67,14.36,5.94a47.36,47.36,0,0,0,21-3.4c1.66-.69,2.05-1.62,2.32-3.18,1-5.56,2.67-10.86,6.28-15.34,1.13-1.4,2.35-2.72,3.42-3.95-6.21-1.11-12.34-2.1-18.41-3.33a72.62,72.62,0,0,1-22.72-9,74.41,74.41,0,0,1-11.2-8c-7.17-6.35-11.52-14.57-14.83-23.47-3.45-9.3-4.94-18.94-5.56-28.73a75.37,75.37,0,0,1,1.27-20.49,59.79,59.79,0,0,1,14.3-27.94,2.33,2.33,0,0,0,.45-1.95,48.83,48.83,0,0,1-2.69-23.68,68.55,68.55,0,0,1,4.05-16.41c.21-.56.9-1.31,1.4-1.34a30.11,30.11,0,0,1,6.51.08c7.16,1.18,13.74,4.17,20.2,7.26,5.09,2.44,9.83,5.6,14.76,8.39a4,4,0,0,0,2.37.77c5.21-1,10.36-2.38,15.6-3.21a128.08,128.08,0,0,1,17.11-1.88c7-.17,14,.37,21,.72,8.22.42,16.21,2.23,24.17,4.18a3.77,3.77,0,0,0,2.43-.3c1.64-.87,3.15-2,4.72-3,10.15-6.42,20.86-11.44,32.81-13.49,2-.35,5.16.63,5.6,1.89a75,75,0,0,1,4.47,19.8A47.07,47.07,0,0,1,305,172.35,57,57,0,0,1,314.28,185c5.21,9.62,7.26,20,7.3,30.84,0,2.89-.14,5.79-.41,8.67-.38,3.91-.83,7.83-1.46,11.71a86.93,86.93,0,0,1-5.84,19.42,52.05,52.05,0,0,1-14.64,19.68,72.55,72.55,0,0,1-18.32,10.88C270.56,290.76,259.62,292.59,248.52,293.83Z"/><path class="cls-1" d="M248.52,293.83c11.1-1.24,22-3.07,32.39-7.59a72.55,72.55,0,0,0,18.32-10.88,52.05,52.05,0,0,0,14.64-19.68,86.93,86.93,0,0,0,5.84-19.42c.63-3.88,1.08-7.8,1.46-11.71.27-2.88.42-5.78.41-8.67,0-10.84-2.09-21.22-7.3-30.84A57,57,0,0,0,305,172.35,47.07,47.07,0,0,0,308.54,151a75,75,0,0,0-4.47-19.8c-.44-1.26-3.55-2.24-5.6-1.89-12,2.05-22.66,7.07-32.81,13.49-1.57,1-3.08,2.11-4.72,3a3.77,3.77,0,0,1-2.43.3c-8-2-15.95-3.76-24.17-4.18-7-.35-14-.89-21-.72a128.08,128.08,0,0,0-17.11,1.88c-5.24.83-10.39,2.2-15.6,3.21a4,4,0,0,1-2.37-.77c-4.93-2.79-9.67-5.95-14.76-8.39-6.46-3.09-13-6.08-20.2-7.26a30.11,30.11,0,0,0-6.51-.08c-.5,0-1.19.78-1.4,1.34a68.55,68.55,0,0,0-4.05,16.41A48.83,48.83,0,0,0,134,171.24a2.33,2.33,0,0,1-.45,1.95,59.79,59.79,0,0,0-14.3,27.94A75.37,75.37,0,0,0,118,221.62c.62,9.79,2.11,19.43,5.56,28.73,3.31,8.9,7.66,17.12,14.83,23.47a74.41,74.41,0,0,0,11.2,8,72.62,72.62,0,0,0,22.72,9c6.07,1.23,12.2,2.22,18.41,3.33-1.07,1.23-2.29,2.55-3.42,3.95-3.61,4.48-5.32,9.78-6.28,15.34-.27,1.56-.66,2.49-2.32,3.18a47.36,47.36,0,0,1-21,3.4c-5.38-.27-10-2.74-14.36-5.94-5.23-3.86-8-9.56-11.65-14.66-4.32-6.09-10.31-10-17.21-12.46a16.64,16.64,0,0,0-9.26-.58c-2.57.61-3.81,1.58-1.86,4.11,1.29,1.67,2.73,3.51,4.54,4.44,5.52,2.86,9.35,7.34,12.42,12.46a103.16,103.16,0,0,1,6.77,13.55c2.5,6,6.82,10.1,12.28,13.25s11.24,4.06,17.25,4.48a97,97,0,0,0,10.5.38c4.32-.17,8.62-.74,13-1.13a2,2,0,0,1,.07.42c.15,9.6.35,19.2.39,28.8,0,4.23-2.27,7.85-5.89,8.48a13.94,13.94,0,0,1-6.95-.42c-7.26-2.79-14.49-5.7-21.48-9.11a123.87,123.87,0,0,1-26.88-17.55,213.8,213.8,0,0,1-17-15.85A154.88,154.88,0,0,1,88.33,315a215.28,215.28,0,0,1-12.69-21A134.75,134.75,0,0,1,63.92,262c-1.35-5.61-2-11.39-3-17.09-1.84-10.65-1.37-21.4-1.09-32.1a111.27,111.27,0,0,1,2.45-19.64,193.29,193.29,0,0,1,6-22.47,154.13,154.13,0,0,1,23.14-43.35,155.69,155.69,0,0,1,17.12-19.51A165.76,165.76,0,0,1,137.69,85.7a144.08,144.08,0,0,1,36.09-15.84c7.4-2,15-3.43,22.56-4.88,10.44-2,21-2,31.6-1.55,6.71.25,13.4,1.41,20.07,2.32a125.56,125.56,0,0,1,25.23,6.5,159.76,159.76,0,0,1,27.45,12.83,146.88,146.88,0,0,1,22.19,15.62c6.32,5.51,12.09,11.66,17.87,17.75,6.82,7.19,12.28,15.45,17.37,23.92a152.83,152.83,0,0,1,12,25.21,165.84,165.84,0,0,1,7.6,27.83A70.69,70.69,0,0,1,379,206.34c.28,10.41.44,20.83.39,31.24a58.45,58.45,0,0,1-1.21,10.94c-1.31,6.71-2.72,13.41-4.46,20a136.53,136.53,0,0,1-12.17,29.9A142.74,142.74,0,0,1,345,323.34c-5,5.94-10.17,11.86-15.73,17.3a138.06,138.06,0,0,1-26.9,20.44c-10.07,5.9-20.51,11.08-31.76,14.32-6.24,1.79-11.24-1-11.22-8.11.06-14.24.11-28.47,0-42.71-.06-6.48-.66-12.92-3.14-19.05-1.38-3.38-2.95-6.59-5.63-9.13a30.92,30.92,0,0,0-2.56-2Z"/></g></g></svg>