<svg width="27" height="26" viewBox="0 0 27 26" fill="none" xmlns="http://www.w3.org/2000/svg">
<g clip-path="url(#clip0)">
<path d="M17.6631 25.9998C17.5575 25.9998 17.4523 25.9998 17.3467 25.9998C16.979 25.8434 16.8263 25.565 16.8564 25.1755C16.867 25.0373 16.8591 24.8981 16.858 24.7594C16.8453 23.5285 16.8533 22.297 16.811 21.0665C16.7888 20.4315 16.558 19.8476 16.1142 19.3648C16.0698 19.3168 16.0307 19.2636 15.9774 19.199C16.0376 19.1885 16.0709 19.1818 16.1047 19.1776C17.0635 19.0493 18.007 18.8752 18.8951 18.4633C20.1128 17.8986 21.0436 17.0691 21.5413 15.8105C21.8276 15.0874 21.9924 14.3392 22.0669 13.566C22.2238 11.9419 21.9634 10.4388 20.8323 9.16768C20.7784 9.1072 20.7541 8.97477 20.7811 8.89812C21.1651 7.80167 21.033 6.73128 20.6416 5.6682C20.5946 5.54046 20.5238 5.47372 20.3981 5.48519C20.1038 5.5123 19.799 5.51387 19.519 5.59468C18.6632 5.84234 17.8739 6.24015 17.1312 6.72555C16.9584 6.83816 16.8031 6.87049 16.5934 6.81783C14.5362 6.30375 12.4743 6.30323 10.4167 6.8147C10.199 6.86893 10.0358 6.84077 9.85511 6.71773C9.14933 6.2365 8.37222 5.8903 7.5592 5.63535C7.24117 5.53577 6.89092 5.52847 6.55388 5.49823C6.49365 5.49301 6.38799 5.56601 6.36528 5.62544C5.96748 6.67393 5.82115 7.73963 6.20257 8.82565C6.26279 8.99666 6.23585 9.10511 6.11857 9.23754C5.54644 9.88353 5.18087 10.6322 5.00601 11.4737C4.8396 12.274 4.86971 13.079 4.96533 13.8809C5.08736 14.907 5.37528 15.8887 5.96537 16.7537C6.79266 17.9664 8.03043 18.5707 9.4177 18.9179C9.93172 19.0467 10.4605 19.1161 11.021 19.2198C10.5308 19.6823 10.3068 20.2542 10.1916 20.8788C10.1816 20.9331 10.1208 20.9988 10.0675 21.0217C9.41611 21.3032 8.72829 21.4054 8.0336 21.2839C7.27815 21.1515 6.74776 20.6677 6.36422 20.0342C6.03088 19.4842 5.60666 19.0384 5.02238 18.7501C4.63779 18.5603 4.23841 18.4393 3.80522 18.5462C3.56538 18.6051 3.51783 18.7068 3.66628 18.8919C3.79994 19.0587 3.97533 19.1927 4.13487 19.3392C4.39003 19.5733 4.69643 19.7714 4.89084 20.0467C5.17928 20.455 5.4186 20.9044 5.62463 21.3606C5.86869 21.9007 6.23374 22.3095 6.76202 22.5733C7.57557 22.9795 8.45516 22.9842 9.33634 22.9492C9.5952 22.9388 9.853 22.8914 10.1261 22.8595C10.1309 22.9461 10.1372 23.0139 10.1377 23.0817C10.1462 23.7667 10.1441 24.4518 10.1652 25.1369C10.1774 25.542 10.0464 25.8434 9.65014 26.0014C9.54448 26.0014 9.43936 26.0014 9.3337 26.0014C9.30306 25.9868 9.27347 25.969 9.24125 25.9586C7.53595 25.4054 5.99707 24.5587 4.64889 23.3877C3.39105 22.2954 2.36618 21.0165 1.56847 19.5613C0.834158 18.2219 0.360817 16.7985 0.149504 15.2912C0.0908646 14.8726 0.0491303 14.4518 0 14.0321C0 13.5118 0 12.9915 0 12.4711C0.0179616 12.3616 0.0433192 12.2527 0.0528283 12.1427C0.146334 11.041 0.360817 9.96225 0.741709 8.92367C1.83208 5.9513 3.72228 3.61084 6.4572 1.94817C9.17363 0.297495 12.1299 -0.261421 15.2737 0.109278C17.2923 0.347026 19.1518 1.04463 20.8545 2.14317C23.2106 3.66298 24.9275 5.71095 25.9984 8.27456C27.0967 10.9044 27.261 13.6197 26.6413 16.384C26.2451 18.1505 25.4622 19.7501 24.3739 21.2026C23.3776 22.5326 22.1868 23.6619 20.7705 24.5551C19.7969 25.1687 18.7498 25.6244 17.6631 25.9998Z" fill="black"/>
</g>
<defs>
<clipPath id="clip0">
<rect width="27" height="26" fill="white"/>
</clipPath>
</defs>
</svg>
