<svg xmlns="http://www.w3.org/2000/svg" viewBox="0 0 349.49 349.53"><defs><style>.cls-1{fill:#fff;}</style></defs><g id="Layer_2" data-name="Layer 2"><g id="Layer_1-2" data-name="Layer 1"><path d="M168.63,0h12.3A20.39,20.39,0,0,0,183,.28a167.41,167.41,0,0,1,35.89,5.4A174.74,174.74,0,0,1,188.33,349a172.75,172.75,0,0,1-65.78-7.41A174.66,174.66,0,0,1,.61,188.33C.41,185.87.2,183.41,0,181v-12.3a20.78,20.78,0,0,0,.28-2.06,170.26,170.26,0,0,1,9-47.79A174.75,174.75,0,0,1,161.24.61ZM121.84,129.82l.29,0q16.5,59.23,33,118.49h25.7q16.5-59.14,33-118.3l.26.09v96.57H200.76v21.89H268v-22c-2,0-3.8,0-5.58,0-4.39-.06-9-4.54-9-8.81q0-44.08,0-88.19c0-4.27,4.11-8.5,8.37-8.76,2-.13,4-.32,6.1-.49V98.68H201.56c-1.49,0-3.29-.35-4.38.35-.86.55-.83,2.47-1.2,3.79,0,0-.07.09-.08.14l-6.61,24.64q-2.83,10.63-5.67,21.28c-2.52,9.39-5.07,18.77-7.59,28.16-.79,2.94-1.56,5.9-2.34,8.85l-.29,0q-11.65-43.58-23.3-87.05h-71v21.47l6,.49c5.18.42,8.69,4.74,8.7,9.87q.06,42.89,0,85.77a9.91,9.91,0,0,1-10.12,10.12c-1.54,0-3.08,0-4.63,0v21.67h56.19V226.49H121.84Z"/><path class="cls-1" d="M121.84,129.82v96.67h13.39v21.72H79V226.54c1.55,0,3.09,0,4.63,0a9.91,9.91,0,0,0,10.12-10.12q.09-42.88,0-85.77c0-5.13-3.52-9.45-8.7-9.87l-6-.49V98.82h71q11.63,43.43,23.3,87.05l.29,0c.78-3,1.55-5.91,2.34-8.85,2.52-9.39,5.07-18.77,7.59-28.16q2.85-10.63,5.67-21.28L195.9,103s.06-.09.08-.14c.37-1.32.34-3.24,1.2-3.79,1.09-.7,2.89-.35,4.38-.35h66.38v21.61c-2.08.17-4.09.36-6.1.49-4.26.26-8.36,4.49-8.37,8.76q0,44.1,0,88.19c0,4.27,4.59,8.75,9,8.81,1.78,0,3.55,0,5.58,0v22H200.76V226.62h13.35V130.05l-.26-.09q-16.5,59.14-33,118.3h-25.7q-16.53-59.28-33-118.49Z"/></g></g></svg>