<svg width="26" height="26" viewBox="0 0 26 26" fill="none" xmlns="http://www.w3.org/2000/svg">
<path d="M26 26C17.3333 26 8.66667 26 0 26C0 17.3333 0 8.66667 0 0C8.66667 0 17.3333 0 26 0C26 8.66667 26 17.3333 26 26ZM20.3253 18.704C20.234 18.5393 20.1907 18.4073 20.1047 18.3167C19.8133 18.012 19.5113 17.716 19.2033 17.428C19.0553 17.2893 18.986 17.1413 18.9867 16.9333C18.992 14.2233 18.992 11.5127 18.9867 8.80267C18.986 8.59667 19.0467 8.44533 19.1987 8.30667C19.5193 8.01533 19.8333 7.71667 20.1353 7.406C20.22 7.31867 20.2533 7.182 20.3333 7.022C18.9073 7.022 17.5667 7.022 16.2107 7.022C15.2513 9.41333 14.2947 11.798 13.3187 14.232C13.2407 14.0753 13.1887 13.978 13.1433 13.8773C12.1487 11.696 11.1493 9.51667 10.1673 7.33C10.0527 7.07467 9.91667 6.998 9.64733 7.00133C8.47 7.01533 7.29267 7.00733 6.11533 7.00733C5.99667 7.00733 5.878 7.00733 5.66933 7.00733C5.762 7.19533 5.80133 7.33 5.88267 7.43133C6.23667 7.87333 6.58733 8.32 6.97 8.73667C7.22333 9.012 7.30333 9.30733 7.30133 9.672C7.28933 11.7153 7.288 13.7593 7.30333 15.8033C7.306 16.162 7.21267 16.4433 6.98067 16.7113C6.53667 17.2227 6.11533 17.754 5.684 18.2767C5.59267 18.3873 5.488 18.4947 5.58667 18.6587C7.034 18.6587 8.48067 18.6587 10.0073 18.6587C9.91467 18.4833 9.86867 18.3513 9.786 18.2487C9.34 17.6953 8.88667 17.148 8.43067 16.6027C8.26667 16.4067 8.18533 16.1947 8.18667 15.934C8.19333 14.19 8.19 12.4467 8.19133 10.7027C8.19133 10.6247 8.20667 10.546 8.222 10.404C8.28267 10.5187 8.31 10.5653 8.332 10.614C8.938 11.936 9.54267 13.258 10.1487 14.58C10.736 15.8613 11.3247 17.1427 11.9127 18.424C11.9713 18.552 12.0047 18.6827 12.2 18.6947C12.438 18.71 12.5247 18.602 12.6033 18.4007C13.6007 15.8473 14.6053 13.2967 15.6093 10.746C15.6473 10.6493 15.6947 10.556 15.7513 10.432C15.7767 10.496 15.7907 10.514 15.7907 10.532C15.792 12.676 15.7953 14.8193 15.7847 16.9633C15.784 17.0987 15.6993 17.262 15.6033 17.364C15.2913 17.6953 14.9567 18.0053 14.6293 18.322C14.5227 18.4253 14.4213 18.528 14.5233 18.7053C16.4233 18.704 18.3293 18.704 20.3253 18.704Z" fill="black"/>
<path d="M20.3253 18.704C18.3293 18.704 16.424 18.704 14.522 18.704C14.42 18.5267 14.5213 18.424 14.628 18.3207C14.9553 18.004 15.29 17.694 15.602 17.3626C15.6986 17.26 15.7826 17.0973 15.7833 16.962C15.794 14.8186 15.7906 12.6746 15.7893 10.5306C15.7893 10.5126 15.776 10.4946 15.75 10.4306C15.6933 10.5546 15.646 10.648 15.608 10.7446C14.604 13.2953 13.5986 15.846 12.602 18.3993C12.5233 18.6013 12.4366 18.7086 12.1986 18.6933C12.0026 18.6806 11.97 18.5506 11.9113 18.4227C11.3233 17.1413 10.7346 15.8606 10.1473 14.5786C9.54131 13.2566 8.93665 11.9346 8.33065 10.6126C8.30798 10.564 8.28065 10.5173 8.22065 10.4026C8.20531 10.5453 8.18998 10.6233 8.18998 10.7013C8.18865 12.4453 8.19198 14.1893 8.18531 15.9327C8.18465 16.1933 8.26531 16.4053 8.42931 16.6013C8.88531 17.1467 9.33798 17.6946 9.78465 18.2473C9.86731 18.35 9.91331 18.4826 10.006 18.6573C8.47865 18.6573 7.03265 18.6573 5.58531 18.6573C5.48731 18.4933 5.59131 18.386 5.68265 18.2753C6.11398 17.7527 6.53531 17.222 6.97931 16.71C7.21198 16.442 7.30465 16.1607 7.30198 15.802C7.28731 13.7586 7.28865 11.7146 7.29998 9.67065C7.30198 9.30598 7.22198 9.01065 6.96865 8.73531C6.58598 8.31865 6.23531 7.87198 5.88131 7.42998C5.79998 7.32865 5.76065 7.19398 5.66798 7.00598C5.87665 7.00598 5.99531 7.00598 6.11398 7.00598C7.29131 7.00598 8.46865 7.01398 9.64598 6.99998C9.91531 6.99665 10.0513 7.07331 10.166 7.32865C11.148 9.51598 12.1473 11.6946 13.142 13.876C13.188 13.976 13.2393 14.0733 13.3173 14.2306C14.2933 11.7966 15.25 9.41131 16.2093 7.02065C17.566 7.02065 18.906 7.02065 20.332 7.02065C20.252 7.17998 20.2186 7.31731 20.134 7.40465C19.832 7.71465 19.518 8.01398 19.1973 8.30531C19.0453 8.44398 18.9853 8.59532 18.9853 8.80132C18.9906 11.5113 18.9906 14.222 18.9853 16.932C18.9846 17.14 19.054 17.288 19.202 17.4267C19.51 17.7147 19.812 18.0107 20.1033 18.3153C20.1906 18.4073 20.234 18.5393 20.3253 18.704Z" fill="#F9F3EB"/>
</svg>
