<svg width="117" height="44" viewBox="0 0 117 44" fill="none" xmlns="http://www.w3.org/2000/svg">
<path d="M0.744 34H8.29V31.256C10.25 33.51 12.651 34.588 15.297 34.588C21.128 34.588 25.734 30.178 25.734 22.142C25.734 14.4 21.177 9.745 15.297 9.745C12.7 9.745 10.152 10.774 8.29 13.126V1.317H0.744V34ZM8.29 25.817V18.565C9.221 17.291 11.181 16.409 12.798 16.409C15.787 16.409 18.041 18.614 18.041 22.142C18.041 25.719 15.787 27.924 12.798 27.924C11.181 27.924 9.221 27.091 8.29 25.817ZM26.1662 22.142C26.1662 29.835 31.8012 34.588 39.1022 34.588C42.7282 34.588 46.6482 33.559 49.0002 31.452L45.8152 26.748C44.4922 27.924 42.1402 28.757 40.0332 28.757C36.5052 28.757 34.4472 26.748 34.0062 24.543H50.8622V22.926C50.8622 14.89 45.7662 9.745 38.7592 9.745C31.3602 9.745 26.1662 15.282 26.1662 22.142ZM38.7592 15.576C42.2382 15.576 43.4632 17.977 43.6592 19.643H33.9082C34.2022 17.928 35.4762 15.576 38.7592 15.576ZM51.0509 22.142C51.0509 29.835 56.6859 34.588 63.9869 34.588C67.6129 34.588 71.5329 33.559 73.8849 31.452L70.6999 26.748C69.3769 27.924 67.0249 28.757 64.9179 28.757C61.3899 28.757 59.3319 26.748 58.8909 24.543H75.7469V22.926C75.7469 14.89 70.6509 9.745 63.6439 9.745C56.2449 9.745 51.0509 15.282 51.0509 22.142ZM63.6439 15.576C67.1229 15.576 68.3479 17.977 68.5439 19.643H58.7929C59.0869 17.928 60.3609 15.576 63.6439 15.576ZM79.1207 34H86.6667V16.899H91.4687V10.333H86.6667V9.353C86.6667 7.54 87.6957 6.56 89.2637 6.56C89.9497 6.56 90.6357 6.707 91.2237 7.05L92.5957 1.905C91.4197 1.268 89.6557 0.826998 87.5977 0.826998C82.6977 0.826998 79.1207 4.11 79.1207 9.157V10.333H75.2007V16.899H79.1207V34ZM93.2147 36.499L92.1367 43.212C92.9207 43.457 94.6847 43.604 95.3707 43.604C99.8787 43.506 103.456 42.379 105.367 37.381L116.049 10.333H108.062L102.672 25.327L97.3307 10.333H89.3927L98.8007 34.343L98.2617 35.617C97.8697 36.597 96.7917 36.94 95.0767 36.94C94.4887 36.94 93.7537 36.793 93.2147 36.499Z" fill="black"/>
</svg>
