<?xml version="1.0" standalone="no"?>
<!DOCTYPE svg PUBLIC "-//W3C//DTD SVG 20010904//EN"
 "http://www.w3.org/TR/2001/REC-SVG-20010904/DTD/svg10.dtd">
<svg version="1.0" xmlns="http://www.w3.org/2000/svg"
 width="793.000000pt" height="680.000000pt" viewBox="0 0 793.000000 680.000000"
 preserveAspectRatio="xMidYMid meet">

<g transform="translate(0.000000,680.000000) scale(0.100000,-0.100000)"
fill="#000000" stroke="none">
<path d="M6472 6755 c-95 -18 -133 -31 -212 -70 -102 -51 -201 -135 -269 -227
-91 -125 -81 -117 -137 -106 -27 5 -85 16 -129 25 -44 8 -98 18 -120 23 -22 4
-312 62 -644 129 -333 67 -610 120 -616 117 -6 -2 -19 -28 -27 -58 -28 -94
-158 -528 -205 -683 -24 -82 -55 -186 -68 -230 -13 -44 -40 -134 -60 -200 -20
-66 -40 -133 -45 -150 -22 -81 -122 -414 -132 -440 -7 -16 -17 -33 -22 -37 -6
-4 -50 -8 -98 -8 -48 0 -120 -4 -160 -9 -40 -6 -118 -15 -173 -21 -623 -73
-1255 -289 -1736 -595 -72 -46 -137 -82 -142 -78 -5 3 -39 28 -75 56 -145 109
-319 167 -502 167 -382 0 -708 -240 -826 -607 -29 -91 -47 -250 -38 -343 25
-274 174 -517 406 -667 60 -38 69 -47 63 -66 -3 -12 -9 -90 -12 -174 -14 -381
87 -726 312 -1063 429 -642 1259 -1134 2220 -1314 223 -42 243 -45 385 -60
293 -32 547 -40 773 -27 219 13 441 34 537 51 520 91 843 189 1226 371 589
279 1073 716 1303 1176 92 183 123 273 171 488 29 131 36 347 17 554 -2 21 11
33 73 74 187 123 324 321 376 542 25 107 23 298 -5 405 -85 331 -340 577 -669
645 -131 27 -316 16 -442 -28 -61 -21 -183 -86 -234 -125 -27 -20 -56 -43 -66
-50 -14 -10 -33 -1 -131 61 -138 89 -196 122 -359 203 -179 88 -489 209 -655
254 -121 34 -319 83 -360 90 -275 49 -289 51 -525 80 -47 5 -106 10 -132 10
-43 0 -48 2 -48 23 0 12 7 45 16 72 22 71 102 335 129 430 13 44 40 134 60
200 20 66 40 134 45 150 5 17 25 84 45 150 20 66 43 143 50 170 22 83 33 105
52 105 42 -1 1156 -230 1169 -241 8 -6 14 -23 14 -36 0 -78 64 -239 134 -337
147 -206 379 -326 631 -326 220 0 390 72 551 235 78 77 99 106 138 186 63 130
86 226 86 358 -1 247 -97 457 -277 606 -173 143 -422 210 -631 170z m-3486
-3384 c184 -61 330 -215 379 -401 19 -71 19 -204 0 -277 -49 -190 -197 -345
-385 -404 -92 -29 -245 -29 -333 0 -171 57 -302 183 -366 351 -21 55 -25 83
-25 185 -1 101 3 131 22 187 67 195 236 340 442 378 66 13 197 3 266 -19z
m2320 0 c93 -31 153 -69 230 -145 111 -111 164 -237 164 -393 0 -149 -49 -275
-149 -384 -66 -72 -139 -120 -239 -156 -90 -33 -245 -35 -342 -4 -170 54 -305
182 -369 351 -21 55 -25 83 -25 185 -1 101 3 131 22 187 67 194 237 340 442
378 66 13 197 3 266 -19z m-2398 -1814 c93 -74 142 -107 252 -165 456 -243
1008 -267 1485 -64 129 55 303 160 400 240 27 23 54 42 60 42 18 0 228 -217
221 -229 -13 -21 -153 -129 -241 -187 -270 -176 -555 -278 -890 -319 -429 -53
-891 48 -1279 279 -88 52 -248 170 -286 210 l-24 27 109 109 c60 61 113 110
118 110 4 0 38 -24 75 -53z"/>
</g>
</svg>
