<svg xmlns="http://www.w3.org/2000/svg" viewBox="0 0 391.07 391.11"><defs><style>.cls-1{fill:#fff;}</style></defs><g id="Layer_2" data-name="Layer 2"><g id="Layer_1-2" data-name="Layer 1"><path d="M188.69,0h13.76a22.85,22.85,0,0,0,2.31.31,187.27,187.27,0,0,1,40.16,6.05A195.83,195.83,0,0,1,384.83,244.81C364,325.37,293.89,384,210.74,390.5a193.49,193.49,0,0,1-73.61-8.29A195.47,195.47,0,0,1,.68,210.74C.46,208,.23,205.23,0,202.47V188.71c.11-.77.28-1.53.32-2.3a190.68,190.68,0,0,1,10-53.48A195.56,195.56,0,0,1,180.42.68Zm85.18,176c-21.92-15.17-46.5-21.82-72.8-23.16,4.07-19,8.11-37.82,12.05-56.61.42-2,1.47-1.55,2.69-1.29q18.36,3.94,36.74,7.88c1.07.23,1.59.58,1.72,1.82A19.28,19.28,0,1,0,257,92.5a2.13,2.13,0,0,1-2.73,1.15q-21.47-4.62-43-9.14c-3.08-.65-5.31.86-5.95,4-.46,2.24-1,4.47-1.44,6.71q-6,28.26-12,56.54c-.2.93-.44,1.46-1.57,1.51-3.14.12-6.27.34-9.39.64a140.11,140.11,0,0,0-42.72,10.87,114.1,114.1,0,0,0-20.35,11.41,1.27,1.27,0,0,1-.31-.07c-.52-.41-1-.82-1.55-1.24a26.39,26.39,0,0,0-14.66-6,27.05,27.05,0,0,0-15.18,50.83c1.26.67,1.42,1.37,1.36,2.67a80.34,80.34,0,0,0-.15,11.91c1.4,13.91,7.69,25.6,17.13,35.66,12.52,13.34,28,21.88,45.25,27.49a149.44,149.44,0,0,0,62.52,6.25,136,136,0,0,0,44.4-12.11c14.28-6.75,26.85-15.74,36.19-28.68,8.87-12.3,13.09-25.92,11.11-41.2a2.22,2.22,0,0,1,1-1.71c10.78-6,16.16-16.57,14.45-28.71-2.09-14.91-17.24-25.45-32-22.3A28.23,28.23,0,0,0,273.87,176Z"/><path class="cls-1" d="M273.87,176a28.23,28.23,0,0,1,13.61-7.12c14.75-3.15,29.9,7.39,32,22.3,1.71,12.14-3.67,22.76-14.45,28.71a2.22,2.22,0,0,0-1,1.71c2,15.28-2.24,28.9-11.11,41.2-9.34,12.94-21.91,21.93-36.19,28.68a136,136,0,0,1-44.4,12.11,149.44,149.44,0,0,1-62.52-6.25c-17.22-5.61-32.73-14.15-45.25-27.49-9.44-10.06-15.73-21.75-17.13-35.66a80.34,80.34,0,0,1,.15-11.91c.06-1.3-.1-2-1.36-2.67a27.05,27.05,0,0,1,15.18-50.83,26.39,26.39,0,0,1,14.66,6c.51.42,1,.83,1.55,1.24a1.27,1.27,0,0,0,.31.07,114.1,114.1,0,0,1,20.35-11.41A140.11,140.11,0,0,1,181,153.88c3.12-.3,6.25-.52,9.39-.64,1.13-.05,1.37-.58,1.57-1.51q6-28.27,12-56.54c.48-2.24,1-4.47,1.44-6.71.64-3.11,2.87-4.62,5.95-4q21.48,4.55,43,9.14A2.13,2.13,0,0,0,257,92.5a19.31,19.31,0,1,1-2.7,12.18c-.13-1.24-.65-1.59-1.72-1.82Q234.18,99,215.81,95c-1.22-.26-2.27-.73-2.69,1.29-3.94,18.79-8,37.56-12.05,56.61C227.37,154.22,252,160.87,273.87,176Zm-121,19.54A19.38,19.38,0,1,0,172.3,215,19.38,19.38,0,0,0,152.88,195.58Zm66,19.55a19.44,19.44,0,1,0,19.51-19.41A19.57,19.57,0,0,0,218.84,215.13ZM199.6,280.67c3.28-.36,8.28-.7,13.21-1.48,8.57-1.35,16.8-3.8,24.06-8.76a29.58,29.58,0,0,0,5.1-4.29,5.22,5.22,0,0,0-.34-7.2,4.85,4.85,0,0,0-6.73.07A34.08,34.08,0,0,1,220.49,267a86.62,86.62,0,0,1-41.12,2c-8.49-1.57-16.58-4.15-23.14-10.24a5.47,5.47,0,0,0-3.84-.9,4.63,4.63,0,0,0-4,3.68,5,5,0,0,0,1.69,5.2,38.68,38.68,0,0,0,12.1,7.77C173.6,279.26,185.63,280.62,199.6,280.67Z"/><path d="M152.88,195.58A19.38,19.38,0,1,1,133.43,215,19.38,19.38,0,0,1,152.88,195.58Z"/><path d="M218.84,215.13a19.44,19.44,0,1,1,19.44,19.48A19.58,19.58,0,0,1,218.84,215.13Z"/><path d="M199.6,280.67c-14-.05-26-1.41-37.43-6.19a38.68,38.68,0,0,1-12.1-7.77,5,5,0,0,1-1.69-5.2,4.63,4.63,0,0,1,4-3.68,5.47,5.47,0,0,1,3.84.9c6.56,6.09,14.65,8.67,23.14,10.24a86.62,86.62,0,0,0,41.12-2A34.08,34.08,0,0,0,234.9,259a4.85,4.85,0,0,1,6.73-.07,5.22,5.22,0,0,1,.34,7.2,29.58,29.58,0,0,1-5.1,4.29c-7.26,5-15.49,7.41-24.06,8.76C207.88,280,202.88,280.31,199.6,280.67Z"/></g></g></svg>