<svg xmlns="http://www.w3.org/2000/svg" viewBox="0 0 531.54 531.6"><defs><style>.cls-1{fill:#fff;}</style></defs><g id="Layer_2" data-name="Layer 2"><g id="Layer_1-2" data-name="Layer 1"><path d="M256.46,0h18.71a30.36,30.36,0,0,0,3.14.43A253.67,253.67,0,0,1,332.9,8.65,266.17,266.17,0,0,1,523.06,332.74c-28.28,109.5-123.6,189.23-236.62,198a263.07,263.07,0,0,1-100.05-11.28C82.65,486.94,9.67,395.18.93,286.43c-.3-3.74-.62-7.49-.93-11.23V256.49a30.36,30.36,0,0,0,.43-3.12A259,259,0,0,1,14,180.68,265.79,265.79,0,0,1,245.23.93Zm-33,379.3c-.54-2.41-.94-4.31-1.38-6.19-2.6-11.22-5.23-22.44-7.79-33.67-3.93-17.24-7.8-34.5-11.73-51.75-1-4.33.15-7.67,3.54-9.79,6.56-4.1,13.1-8.22,19.68-12.29q22.74-14.08,45.5-28.14,23.48-14.53,46.92-29.1Q339.12,195.43,360,182.5c2.47-1.53,4.47-1.51,5.88.22,1.58,1.95,1.39,3.93-.87,6-7.21,6.52-14.48,13-21.73,19.44-4.63,4.14-9.25,8.29-13.92,12.39-8.4,7.38-16.86,14.7-25.24,22.09-5.58,4.91-11.06,9.93-16.62,14.87q-13.65,12.11-27.34,24.17c-3.43,3-6.83,6.1-10.27,9.11-5.22,4.58-10.59,9-15.61,13.76-1.38,1.31-2,3.63-2.48,5.6a37.91,37.91,0,0,0-.56,6.33c-.77,11.25-1.55,22.51-2.26,33.77-.44,6.85-.73,13.7-1.14,20.56-.2,3.23-.52,6.46-.8,9.89a8.1,8.1,0,0,0,8.22-1.41,104.12,104.12,0,0,0,8.94-8.65q14.15-14.37,28.26-28.77c2.63-2.68,2.86-2.59,5.85-.37q15,11.13,30.09,22.19c13.19,9.71,26.43,19.35,39.57,29.15a14.71,14.71,0,0,0,23.22-7.58c1.22-4.27,1.91-8.7,2.83-13.05,2.08-9.85,4.18-19.69,6.24-29.54,2.25-10.8,4.45-21.62,6.71-32.42s4.58-21.28,6.79-31.94c2.77-13.34,5.4-26.72,8.19-40.07s5.73-26.48,8.5-39.75c3.15-15.09,6.1-30.23,9.3-45.31,1.22-5.75-.48-10.49-4.8-14-4.1-3.32-8.9-4.49-14.17-2.29-5.7,2.39-11.49,4.54-17.25,6.78q-19.09,7.41-38.18,14.81-23.62,9.21-47.22,18.46l-39,15.26c-10.15,4-20.28,8-30.44,11.94-14.77,5.73-29.57,11.4-44.34,17.13q-23.19,9-46.35,18c-6.58,2.56-13.19,5.07-19.75,7.69a10,10,0,0,0-5.07,14.71c1.65,2.76,4.36,4,7.34,4.89q34.12,10,68.24,20.12a4.37,4.37,0,0,1,2.52,2.45c3.49,10.63,6.83,21.32,10.2,32q8.07,25.5,16.13,51C218.53,375.17,219.93,377.84,223.5,379.3Z"/><path class="cls-1" d="M223.5,379.3c-3.57-1.46-5-4.13-5.93-7.15q-8.07-25.5-16.13-51c-3.37-10.67-6.71-21.36-10.2-32a4.37,4.37,0,0,0-2.52-2.45q-34.09-10.17-68.24-20.12c-3-.88-5.69-2.13-7.34-4.89A10,10,0,0,1,118.21,247c6.56-2.62,13.17-5.13,19.75-7.69q23.17-9,46.35-18c14.77-5.73,29.57-11.4,44.34-17.13,10.16-4,20.29-8,30.44-11.94l39-15.26q23.61-9.22,47.22-18.46,19.08-7.44,38.18-14.81c5.76-2.24,11.55-4.39,17.25-6.78,5.27-2.2,10.07-1,14.17,2.29,4.32,3.5,6,8.24,4.8,14-3.2,15.08-6.15,30.22-9.3,45.31-2.77,13.27-5.73,26.49-8.5,39.75s-5.42,26.73-8.19,40.07c-2.21,10.66-4.55,21.29-6.79,31.94s-4.46,21.62-6.71,32.42c-2.06,9.85-4.16,19.69-6.24,29.54-.92,4.35-1.61,8.78-2.83,13.05A14.71,14.71,0,0,1,348,392.81c-13.14-9.8-26.38-19.44-39.57-29.15q-15.06-11.09-30.09-22.19c-3-2.22-3.22-2.31-5.85.37Q258.3,356.2,244.2,370.61a104.12,104.12,0,0,1-8.94,8.65,8.1,8.1,0,0,1-8.22,1.41c.28-3.43.6-6.66.8-9.89.41-6.86.7-13.71,1.14-20.56.71-11.26,1.49-22.52,2.26-33.77a37.91,37.91,0,0,1,.56-6.33c.48-2,1.1-4.29,2.48-5.6,5-4.77,10.39-9.18,15.61-13.76,3.44-3,6.84-6.08,10.27-9.11q13.66-12.09,27.34-24.17c5.56-4.94,11-10,16.62-14.87,8.38-7.39,16.84-14.71,25.24-22.09,4.67-4.1,9.29-8.25,13.92-12.39,7.25-6.47,14.52-12.92,21.73-19.44,2.26-2,2.45-4,.87-6-1.41-1.73-3.41-1.75-5.88-.22q-20.87,12.94-41.76,25.87-23.46,14.53-46.92,29.1-22.74,14.09-45.5,28.14c-6.58,4.07-13.12,8.19-19.68,12.29-3.39,2.12-4.53,5.46-3.54,9.79,3.93,17.25,7.8,34.51,11.73,51.75,2.56,11.23,5.19,22.45,7.79,33.67C222.56,375,223,376.89,223.5,379.3Z"/></g></g></svg>