<svg width="26" height="26" viewBox="0 0 26 26" fill="none" xmlns="http://www.w3.org/2000/svg">
<g clip-path="url(#clip0)">
<path d="M12.4197 0C12.8096 0 13.1995 0 13.5899 0C13.6744 0.0176935 13.7582 0.0395155 13.8438 0.0519009C14.5462 0.155703 15.2591 0.211732 15.9498 0.367435C22.273 1.79707 26.679 8.04641 25.9145 14.524C25.5692 17.4523 24.3649 20.009 22.2894 22.0886C18.9774 25.4073 14.9531 26.6134 10.3917 25.7092C3.11394 24.266 -1.35893 17.1609 0.372411 9.95023C1.64116 4.66813 6.13807 0.68061 11.4669 0.112649C11.7847 0.0790309 12.1019 0.0377461 12.4197 0ZM12.7216 17.7259C12.8055 17.7861 12.8612 17.825 12.9163 17.8657C14.1827 18.8135 15.4467 19.7648 16.7167 20.7079C17.2707 21.1195 17.9473 20.8571 18.0857 20.1806C18.9516 15.9519 19.8117 11.7219 20.6824 7.49437C20.7551 7.14109 20.6988 6.85151 20.4303 6.61796C20.153 6.37733 19.8522 6.35904 19.5063 6.49469C14.4119 8.49524 9.31405 10.4881 4.21794 12.4828C4.13645 12.5146 4.05319 12.5459 3.97815 12.5895C3.79757 12.6945 3.68617 12.8449 3.69262 13.0661C3.69848 13.2872 3.81868 13.4341 4.00395 13.5261C4.11651 13.5821 4.24022 13.6151 4.361 13.6529C5.50428 14.0091 6.64698 14.3677 7.79202 14.7163C7.9685 14.7699 8.06582 14.8543 8.11976 15.0377C8.29448 15.6287 8.48854 16.2137 8.67499 16.8012C8.94762 17.6587 9.23549 18.5121 9.48818 19.3756C9.65293 19.9376 10.2979 20.2543 10.7681 19.6934C10.8308 19.6185 10.9053 19.5543 10.9739 19.4847C11.5508 18.9037 12.1295 18.3222 12.7216 17.7259Z" fill="black"/>
<path d="M9.8903 18.7179C9.8434 18.6094 9.78477 18.5044 9.75135 18.3918C9.40895 17.2488 9.07066 16.104 8.73061 14.9604C8.63504 14.6378 8.65908 14.5682 8.95164 14.3836C10.2474 13.5668 11.5437 12.7517 12.8394 11.9354C14.2922 11.0201 15.7439 10.1042 17.1967 9.1894C17.2706 9.14281 17.3474 9.0744 17.426 9.06968C17.521 9.06378 17.6189 9.11568 17.7156 9.14222C17.6758 9.22892 17.657 9.3398 17.5925 9.39878C17.0508 9.89242 16.5008 10.3766 15.9532 10.8638C14.172 12.4485 12.395 14.038 10.605 15.6127C10.3705 15.8191 10.2755 16.0433 10.2491 16.3423C10.1817 17.0937 10.092 17.8427 10.0093 18.5923C10.0052 18.6277 9.98763 18.6613 9.9759 18.6961C9.94776 18.7032 9.91903 18.7103 9.8903 18.7179Z" fill="black"/>
</g>
<defs>
<clipPath id="clip0">
<rect width="26" height="26" fill="white"/>
</clipPath>
</defs>
</svg>
