<svg xmlns="http://www.w3.org/2000/svg" viewBox="0 0 733.4 733.33"><g id="Layer_2" data-name="Layer 2"><g id="Layer_1-2" data-name="Layer 1"><path d="M733.4,361.28c0,53.86-9.87,100.24-28.22,144.92a378.37,378.37,0,0,1-69.66,110.13c-28,31.06-61.21,55.26-98.2,74.42a382.86,382.86,0,0,1-100.27,35.57,351,351,0,0,1-86.6,6.62C291,730.14,235.62,713.17,183.93,684a361.88,361.88,0,0,1-81.37-62.47c-23.77-24.33-43.07-52-58.81-82.08A386.24,386.24,0,0,1,7.4,438.61,342.84,342.84,0,0,1,.33,353.23C3.86,274.77,30.16,204.57,77.2,141.91c30.25-40.29,67.92-71.86,112.15-95.76A388.73,388.73,0,0,1,285.06,9.5a352.72,352.72,0,0,1,100.76-9c54.05,2.92,104.77,17.79,152.64,42.74a372.82,372.82,0,0,1,87.15,63.24c11.64,11.26,21.65,24,31.25,37a441.89,441.89,0,0,1,47,80.71c9.53,21.19,16.25,43.42,21.25,66.13C730.64,315.55,733.37,341,733.4,361.28ZM360.83,484c.54.38.92.63,1.29.9q43.23,32.08,86.44,64.19a38.87,38.87,0,0,0,13.23,6.45c9.16,2.47,15.87-.42,19.9-9A54.71,54.71,0,0,0,485.52,535c5.18-23.83,10.19-47.69,15.25-71.55q12.6-59.26,25.2-118.54,10-47.09,20-94.17c1.18-5.54,1.69-11.11.09-16.65-2.53-8.71-9.82-13.89-18.35-12.84a33.09,33.09,0,0,0-7.82,2Q438,254.8,356.19,286.44q-84.35,32.55-168.7,65.1-13.74,5.31-27.3,11a19.64,19.64,0,0,0-9.31,7.42c-3.86,6.07-2.62,11.22,3.84,14.36a67.93,67.93,0,0,0,9.87,3.38q43.74,13.44,87.48,26.84a3.53,3.53,0,0,0,3.3-.45c3.59-2.34,7.24-4.58,10.87-6.86q98.2-61.82,196.4-123.6a56.46,56.46,0,0,1,5.6-3.32,9.65,9.65,0,0,1,7.51-.55c1.83.64,2.46,2.12,1.42,3.73a17.21,17.21,0,0,1-3,3.42q-37.6,34.43-75.25,68.8-46.33,42.34-92.64,84.71a4.53,4.53,0,0,0-1.29,2.64c-.41,3.87-.62,7.76-.93,11.64l-5.79,73.4c-.18,2.34-.31,4.69-.48,7.12.76,0,1.28,0,1.79,0a11.88,11.88,0,0,0,1.57-.23c6.46-1.4,11.82-4.92,16.5-9.34,10.37-9.78,20.53-19.78,30.78-29.69Z"/></g></g></svg>