<svg width="31" height="26" viewBox="0 0 31 26" fill="none" xmlns="http://www.w3.org/2000/svg">
<path d="M2.09595 1.21379C5.56102 5.39466 9.91335 7.68139 15.1809 8.05708C15.1566 7.37958 15.0957 6.73839 15.1176 6.09971C15.2089 3.45294 17.2117 0.911985 19.7134 0.250135C22.0758 -0.374146 24.1564 0.164977 25.937 1.88691C26.0678 2.0134 26.1756 2.05347 26.3612 2.01027C27.5825 1.72787 28.7436 1.28643 29.8378 0.660269C29.9236 0.610803 30.0131 0.568224 30.1494 0.496842C29.9273 1.27265 29.5919 1.93763 29.1142 2.50118C28.6414 3.05908 28.0943 3.55062 27.5904 4.06031C28.7217 3.92819 29.8421 3.58381 30.9307 3.11419C30.9533 3.13986 30.9758 3.16553 30.9983 3.1912C30.4932 3.80046 30.0137 4.43475 29.4757 5.01082C29.043 5.47418 28.5452 5.87492 28.0639 6.28819C27.9184 6.41279 27.8521 6.53114 27.8564 6.73151C27.944 10.9593 26.7908 14.8102 24.4363 18.261C21.6796 22.3016 17.9218 24.7887 13.1928 25.6734C9.86771 26.2952 6.60346 26.031 3.4232 24.8306C2.27122 24.3961 1.17705 23.8369 0.135216 23.1694C0.104789 23.15 0.0780125 23.1231 -0.00109863 23.0573C3.47614 23.3817 6.55843 22.5113 9.34558 20.3498C6.43064 20.09 4.48389 18.5972 3.4019 15.7858C4.37983 15.911 5.28961 15.9279 6.2499 15.6486C4.73766 15.2786 3.52239 14.5234 2.58827 13.3218C1.65354 12.119 1.188 10.7458 1.19044 9.14347C2.08378 9.61372 2.97835 9.90488 4.04331 9.9412C2.64791 8.89802 1.7576 7.59686 1.40099 5.95069C1.04499 4.30264 1.27381 2.7291 2.09595 1.21379Z" fill="black"/>
</svg>
