<svg xmlns="http://www.w3.org/2000/svg" viewBox="0 0 422.61 422.58"><defs><style>.cls-1{fill:#fff;}</style></defs><g id="Layer_2" data-name="Layer 2"><g id="Layer_1-2" data-name="Layer 1"><path d="M203.84,0h14.87a23.81,23.81,0,0,0,2.5.34,204,204,0,0,1,47.9,7.77C354.3,32.5,414.71,106.41,421.87,195c.24,3,.49,5.95.74,8.92v14.87a19.59,19.59,0,0,0-.34,2.28A206.66,206.66,0,0,1,416.39,262c-21.48,87.33-96.75,152-186.13,159.76a209.94,209.94,0,0,1-63.2-3.84c-43-9.36-79.81-30-109.86-62.17C23.49,319.64,4.67,276.79.69,227.52a205.82,205.82,0,0,1,6.22-69.76,211.08,211.08,0,0,1,188-157ZM91.71,292.42a18.94,18.94,0,0,0,1.81,1.37c3.59,2,7.09,4.16,10.81,5.84,19.56,8.84,40.31,12.08,61.56,12.72a152.39,152.39,0,0,0,54-8.38c19.62-6.67,36.72-17.22,50.44-33a147.45,147.45,0,0,0,28.61-49.82c5.84-17.15,9.11-34.74,8.4-52.95a3,3,0,0,1,.94-1.93c4.91-4.76,10-9.32,14.77-14.24,3.07-3.18,5.62-6.87,8.4-10.34l-.42-.39c-2.48.94-4.94,1.92-7.44,2.81s-5,1.76-7.58,2.55-5.13,1.49-7.71,2.16-5,1.19-7.55,1.78c9.7-9.07,17.77-19,22.63-31.86-2.88,1.8-5.25,3.42-7.75,4.8-5.35,3-10.77,5.78-16.17,8.66-1.31.7-2.14.46-3.23-.8a91.53,91.53,0,0,0-9.58-10c-9.23-7.87-19.82-12.14-32.2-10.8a49.69,49.69,0,0,0-29.69,13.5c-9.95,9.47-14.32,21.34-14.59,34.89,0,2.58,0,5.16,0,8h-2a194.07,194.07,0,0,1-35.77-3c-24.81-4.71-46.66-15-63.73-34.13-.84-.94-1.73-1.84-2.77-2.94-5.57,8.91-9,18-7.85,28.36,1.25,11.11,6.57,20.18,14.32,28,2.55,2.56,5.32,4.9,8.39,7.7-8.18-1.78-15.78-3.72-22.86-7.87,0,.58,0,.9,0,1.21,0,.46.07.91.13,1.36,1.71,11.4,7.38,20.76,15.15,29,9.53,10,21.15,17,33.73,22.54,2.18,1,4.38,1.87,7.09,3-13.56,5.06-26.58,3.43-39.8,0a31,31,0,0,0,5.25,10.94c6.38,8.7,15.15,14,25.22,17.24,5.42,1.72,11.06,2.77,17,4.21C140.9,287.73,117.25,292.24,91.71,292.42Z"/><path class="cls-1" d="M91.71,292.42c25.54-.18,49.19-4.69,69.92-19.91-5.91-1.44-11.55-2.49-17-4.21-10.07-3.2-18.84-8.54-25.22-17.24a31,31,0,0,1-5.25-10.94c13.22,3.45,26.24,5.08,39.8,0-2.71-1.16-4.91-2.07-7.09-3-12.58-5.52-24.2-12.5-33.73-22.54-7.77-8.2-13.44-17.56-15.15-29-.06-.45-.1-.9-.13-1.36,0-.31,0-.63,0-1.21,7.08,4.15,14.68,6.09,22.86,7.87-3.07-2.8-5.84-5.14-8.39-7.7-7.75-7.78-13.07-16.85-14.32-28-1.16-10.36,2.28-19.45,7.85-28.36,1,1.1,1.93,2,2.77,2.94C125.72,149,147.57,159.25,172.38,164a194.07,194.07,0,0,0,35.77,3h2c0-2.79,0-5.37,0-8,.27-13.55,4.64-25.42,14.59-34.89a49.69,49.69,0,0,1,29.69-13.5c12.38-1.34,23,2.93,32.2,10.8a91.53,91.53,0,0,1,9.58,10c1.09,1.26,1.92,1.5,3.23.8,5.4-2.88,10.82-5.71,16.17-8.66,2.5-1.38,4.87-3,7.75-4.8-4.86,12.88-12.93,22.79-22.63,31.86,2.51-.59,5-1.14,7.55-1.78s5.16-1.38,7.71-2.16,5.07-1.65,7.58-2.55,5-1.87,7.44-2.81l.42.39c-2.78,3.47-5.33,7.16-8.4,10.34-4.74,4.92-9.86,9.48-14.77,14.24a3,3,0,0,0-.94,1.93c.71,18.21-2.56,35.8-8.4,52.95A147.45,147.45,0,0,1,270.3,271c-13.72,15.73-30.82,26.28-50.44,33a152.39,152.39,0,0,1-54,8.38c-21.25-.64-42-3.88-61.56-12.72-3.72-1.68-7.22-3.86-10.81-5.84A18.94,18.94,0,0,1,91.71,292.42Z"/></g></g></svg>