<svg xmlns="http://www.w3.org/2000/svg" viewBox="0 0 447.26 447.31"><defs><style>.cls-1{fill:#fff;}</style></defs><g id="Layer_2" data-name="Layer 2"><g id="Layer_1-2" data-name="Layer 1"><path d="M215.8,0h15.74c.88.12,1.75.32,2.64.36a213.47,213.47,0,0,1,45.93,6.91A224,224,0,0,1,440.12,280c-23.79,92.13-104,159.23-199.1,166.63a221.32,221.32,0,0,1-84.19-9.49C69.54,409.73,8.14,332.52.78,241c-.25-3.15-.52-6.3-.78-9.45V215.82c.12-.87.32-1.75.36-2.63A218.28,218.28,0,0,1,11.81,152,223.63,223.63,0,0,1,206.34.78C209.5.53,212.65.26,215.8,0ZM225,314.13v.06h29.2c18.23,0,36.46.16,54.67-.18,10.45-.19,19.55-4.45,27.17-11.59,9.59-9,14.09-20.16,14.08-33.25q0-42.68,0-85.34c0-2-.12-4-.32-6-2.24-21.91-21.09-39.11-43.08-39.13q-81.6-.08-163.19,0c-23.42,0-43.16,19.47-43.29,42.83q-.26,44.83,0,89.68c.12,23.09,19.1,42.54,42.16,42.82C169.86,314.4,197.41,314.13,225,314.13Z"/><path class="cls-1" d="M225,314.13c-27.54,0-55.09.27-82.63-.08-23.06-.28-42-19.73-42.16-42.82q-.22-44.84,0-89.68c.13-23.36,19.87-42.81,43.29-42.83q81.58-.08,163.19,0c22,0,40.84,17.22,43.08,39.13.2,2,.31,4,.32,6q0,42.67,0,85.34c0,13.09-4.49,24.27-14.08,33.25-7.62,7.14-16.72,11.4-27.17,11.59-18.21.34-36.44.15-54.67.18H225Zm-26.33-52.92,66.61-35.5-66.61-34.58Z"/><path d="M198.62,261.21V191.13l66.61,34.58Z"/></g></g></svg>